<?xml version="1.0" encoding="utf-8"?>
<svg version="1.0" width="1280.000000pt" height="950.000000pt" viewBox="0 0 538.956 400" preserveAspectRatio="xMidYMid meet" xmlns="http://www.w3.org/2000/svg">
  <defs/>
  <g transform="matrix(0.047646, 0, 0, -0.047646, -35.456418, 426.318488)" fill="#000000" stroke="none">
    <path d="M 4657.704 7938.932 C 4502.704 7924.932 4219.704 7877.932 4082.704 7844.932 C 3803.704 7777.932 3589.704 7695.932 3347.704 7563.932 C 3013.704 7382.932 2852.704 7261.932 2588.704 6995.932 C 2370.704 6774.932 2317.704 6710.932 2178.704 6499.932 C 1906.704 6087.932 1744.704 5639.932 1671.704 5099.932 C 1619.704 4718.932 1674.704 4182.932 1806.704 3777.932 C 1922.704 3421.932 2129.704 3035.932 2352.704 2757.932 C 2445.704 2640.932 2714.704 2372.932 2837.704 2273.932 C 3316.704 1884.932 3896.704 1644.932 4507.704 1580.932 C 4808.704 1549.932 4927.704 1550.932 5267.704 1590.932 C 5612.704 1630.932 6019.704 1763.932 6351.704 1943.932 C 6534.704 2042.932 6877.704 2272.932 6877.704 2296.932 C 6877.704 2301.932 6833.704 2282.932 6780.704 2255.932 C 6726.704 2228.932 6620.704 2183.932 6545.704 2155.932 C 6256.704 2047.932 6014.704 1993.932 5712.704 1969.932 C 5556.704 1957.932 5509.704 1957.932 5357.704 1969.932 C 5121.704 1989.932 5034.704 2004.932 4822.704 2059.932 C 4612.704 2114.932 4466.704 2168.932 4289.704 2258.932 C 4023.704 2394.932 3885.704 2487.932 3680.704 2667.932 C 3424.704 2893.932 3279.704 3075.932 3094.704 3403.932 C 2899.704 3747.932 2788.704 4115.932 2751.704 4539.932 C 2713.704 4977.932 2790.704 5439.932 2973.704 5862.932 C 3073.704 6095.932 3228.704 6352.932 3373.704 6524.932 C 3528.704 6709.932 3826.704 6972.932 4027.704 7100.932 C 4282.704 7263.932 4417.704 7326.932 4687.704 7409.932 C 5193.704 7564.932 5631.704 7580.932 6158.704 7464.932 C 6348.704 7422.932 6505.704 7368.932 6696.704 7279.932 C 6786.704 7237.932 6861.704 7205.932 6864.704 7208.932 C 6870.704 7214.932 6757.704 7306.932 6671.704 7364.932 C 6469.704 7501.932 6129.704 7678.932 5931.704 7750.932 C 5724.704 7825.932 5364.704 7906.932 5162.704 7924.932 C 5032.704 7935.932 4721.704 7944.932 4657.704 7938.932 Z"/>
    <path d="M 5280.704 7390.932 C 4873.704 7340.932 4503.704 7219.932 4186.704 7031.932 C 4059.704 6956.932 3892.704 6836.932 3901.704 6827.932 C 3903.704 6825.932 3934.704 6837.932 3968.704 6855.932 C 4124.704 6933.932 4370.704 7013.932 4548.704 7043.932 C 4968.704 7114.932 5428.704 7073.932 5797.704 6931.932 C 6165.704 6789.932 6458.704 6581.932 6758.704 6247.932 C 6788.704 6214.932 6803.704 6206.932 6842.704 6201.932 C 6902.704 6192.932 7710.704 6192.932 7731.704 6200.932 C 7756.704 6210.932 7750.704 6227.932 7700.704 6295.932 C 7565.704 6481.932 7402.704 6654.932 7242.704 6784.932 C 7198.704 6819.932 7160.704 6851.932 7157.704 6855.932 C 7154.704 6858.932 7091.704 6902.932 7017.704 6951.932 C 6670.704 7183.932 6338.704 7310.932 5892.704 7380.932 C 5754.704 7401.932 5422.704 7407.932 5280.704 7390.932 Z"/>
    <path d="M 5092.704 5802.932 C 5089.704 5795.932 5086.704 5506.932 5085.704 5159.932 L 5082.704 4529.932 L 5059.704 4479.932 C 4997.704 4343.932 4853.704 4271.932 4592.704 4245.932 C 4533.704 4239.932 4351.704 4234.932 4189.704 4234.932 L 3895.704 4234.932 L 3858.704 4196.932 C 3709.704 4041.932 3407.704 3706.932 3407.704 3695.932 C 3407.704 3664.932 4514.704 3676.932 4767.704 3709.932 C 5182.704 3764.932 5476.704 3884.932 5644.704 4068.932 C 5745.704 4179.932 5762.704 4212.932 5811.704 4405.932 L 5857.704 4580.932 L 5857.704 5185.932 C 5857.704 5642.932 5854.704 5793.932 5845.704 5802.932 C 5827.704 5820.932 5098.704 5819.932 5092.704 5802.932 Z"/>
    <path d="M 6278.704 5799.932 C 6174.704 5766.932 6093.704 5682.932 6060.704 5569.932 C 6044.704 5514.932 6042.704 5435.932 6039.704 4625.932 C 6038.704 4139.932 6040.704 3737.932 6044.704 3733.932 C 6051.704 3726.932 6353.704 3720.932 6545.704 3723.932 L 6627.704 3724.932 L 6627.704 4314.932 C 6627.704 4824.932 6629.704 4904.932 6642.704 4904.932 C 6660.704 4904.932 6869.704 4722.932 7472.704 4179.932 C 7926.704 3771.932 7911.704 3783.932 8039.704 3729.932 C 8139.704 3686.932 8156.704 3682.932 8207.704 3687.932 C 8281.704 3693.932 8356.704 3726.932 8401.704 3773.932 C 8432.704 3805.932 8442.704 3827.932 8467.704 3920.932 C 8483.704 3980.932 8501.704 4045.932 8506.704 4064.932 C 8513.704 4087.932 8517.704 4381.932 8517.704 4941.932 L 8517.704 5784.932 L 8222.704 5784.932 L 7927.704 5784.932 L 7927.704 5189.932 C 7927.704 4694.932 7925.704 4594.932 7913.704 4594.932 C 7906.704 4594.932 7859.704 4631.932 7810.704 4677.932 C 7761.704 4722.932 7609.704 4858.932 7472.704 4979.932 C 7336.704 5100.932 7094.704 5314.932 6936.704 5455.932 L 6649.704 5710.932 L 6533.704 5762.932 C 6407.704 5819.932 6362.704 5825.932 6278.704 5799.932 Z"/>
    <path d="M 9647.704 5808.932 C 9525.704 5790.932 9352.704 5737.932 9252.704 5686.932 C 8999.704 5560.932 8825.704 5350.932 8742.704 5075.932 C 8658.704 4795.932 8700.704 4477.932 8858.704 4198.932 C 8908.704 4108.932 9042.704 3967.932 9148.704 3891.932 C 9262.704 3810.932 9342.704 3779.932 9562.704 3732.932 L 9762.704 3689.932 L 10426.704 3686.932 C 10910.704 3684.932 11093.704 3687.932 11103.704 3695.932 C 11115.704 3704.932 11117.704 3819.932 11117.704 4360.932 L 11117.704 5014.932 C 11197.21 4999.03 10642.747 4990.322 10519.704 5014.932 L 9920.704 5014.932 L 9900.704 4992.932 C 9879.704 4968.932 9632.704 4628.932 9602.704 4581.932 C 9592.704 4566.932 9588.704 4550.932 9591.704 4546.932 C 9595.704 4542.932 9809.704 4537.932 10065.704 4534.932 L 10532.704 4529.932 L 10535.704 4414.932 C 10537.704 4351.932 10536.704 4285.932 10532.704 4266.932 L 10526.704 4233.932 L 10114.704 4236.932 C 9714.704 4240.932 9700.704 4241.932 9637.704 4263.932 C 9442.704 4332.932 9344.704 4432.932 9307.704 4600.932 C 9258.704 4822.932 9297.704 4974.932 9439.704 5111.932 C 9512.704 5181.932 9559.704 5207.932 9665.704 5237.932 C 9740.704 5258.932 9756.704 5258.932 10254.704 5256.932 C 10595.704 5254.932 10773.704 5257.932 10786.704 5263.932 C 10797.704 5269.932 10852.704 5343.932 10908.704 5426.932 C 10964.704 5510.932 11041.704 5623.932 11079.704 5676.932 C 11116.704 5729.932 11147.704 5782.932 11147.704 5793.932 L 11147.704 5814.932 L 10410.704 5813.932 C 10004.704 5812.932 9661.704 5810.932 9647.704 5808.932 Z"/>
    <path d="M 6805.704 3296.932 C 6795.704 3292.932 6745.704 3243.932 6695.704 3188.932 C 6383.704 2847.932 6047.704 2639.932 5595.704 2506.932 C 5352.704 2434.932 5104.704 2407.932 4844.704 2423.932 C 4515.704 2444.932 4298.704 2500.932 3934.704 2658.932 C 3880.704 2682.932 3894.704 2665.932 3979.704 2607.932 C 4186.704 2465.932 4417.704 2340.932 4592.704 2276.932 C 4908.704 2161.932 5099.704 2121.932 5403.704 2104.932 C 5977.704 2073.932 6541.704 2227.932 7017.704 2545.932 C 7252.704 2702.932 7476.704 2913.932 7655.704 3146.932 C 7716.704 3225.932 7747.704 3274.932 7747.704 3292.932 C 7747.704 3301.932 7648.704 3304.932 7285.704 3303.932 C 7030.704 3303.932 6814.704 3299.932 6805.704 3296.932 Z"/>
  </g>
</svg>