<svg xmlns="http://www.w3.org/2000/svg" width="2133" height="2133" viewBox="0 0 2133 2133">
  <defs>
    <style>
      .cls-1 {
        fill: #fff;
        fill-rule: evenodd;
      }
    </style>
  </defs>
  <path class="cls-1" d="M1085,15s-9.31-15.3-38-15H323S197.425-.43,125,123c0,0-29.5,53.336-29,112V1603s-5.487,96.8,77,171c0,0,62.645,61.51,153,62H901s162.42,299.71,537,298c0,0,404.09,5.28,564-412,0,0,142.42-349.04-159-646,0,0-120.46-119.946-294-152V517s1.61-14.309-19-34Zm11,140-1,220s8.06,96.378,106,102l201-1Zm329.5,844c289.12,0,523.5,233.71,523.5,522s-234.38,522-523.5,522S902,1809.29,902,1521,1136.38,999,1425.5,999Zm36.5-86s-242.84-27.175-441,150H457s-43.788-.32-46,46c0,0-.059,36.2,42,43H937s-57.2,78.91-78,138H455s-43.25.7-44,46c0,0,.379,36.88,39,42H830s-52.3,186.63,28,371H338s-135.869,4.32-154-150V231S191.084,94.2,341,89h666V375s-1.83,167.441,191,191h263ZM454.5,840h451a44.5,44.5,0,0,1,0,89h-451A44.5,44.5,0,0,1,454.5,840ZM1382,1711V1226s-1.15-44.25,44-46c0,0,40.21-.5,43,47l1,483,179-193s27.23-34.95,64-8c0,0,29.49,25.22,6,60l-264,286s-34.67,30.29-66-5l-262-281s-21.46-38.36,8-59c0,0,23.12-24.82,58-1Z"/>
</svg>
