<svg xmlns="http://www.w3.org/2000/svg" viewBox="0 0 80.9 80.9" width="80.9" height="80.9" style="enable-background:new 0 0 80.9 80.9"><style>.st0{fill:#3965dd}.st1{fill:none;stroke:#3965dd;stroke-miterlimit:10}.st2{fill:#fff}</style><circle class="st0" cx="40.4" cy="40.4" r="35"/><circle class="st1" cx="40.4" cy="40.4" r="39.9"/><path class="st2" d="M25.3 35.8h2.6c1.7 0 3.3 1.2 3.3 3.8 0 2.9-1.7 3.9-3.4 3.9h-2.5v-7.7zm2.5 6.3c1 0 1.8-.4 1.8-2.5 0-1.8-.8-2.5-1.7-2.5h-1.1v5h1zM33.8 35.8h3.1c1.6 0 2.7.9 2.7 2.5 0 1.1-.6 1.9-1.6 2.2l1.6 3H38l-1.6-2.9h-1.1v2.9h-1.5v-7.7zm3 3.5c.8 0 1.3-.3 1.3-1.1s-.5-1.1-1.3-1.1h-1.5v2.2h1.5zM46.1 42.2h-2.9l-.4 1.3h-1.5l2.8-7.7h1.3l2.8 7.7h-1.5l-.6-1.3zM43.6 41h2.1l-1-3-1.1 3zM49.7 39.5c0-2.6 1.6-3.9 3.3-3.9 1.5 0 2.8 1 3 2.6l-1.5.2c-.1-.7-.5-1.4-1.5-1.4s-1.8.8-1.8 2.5c0 2 .9 2.8 1.8 2.8s1.5-.6 1.5-1.6h-1.4v-1.3H56v1c0 2-1.3 3.2-3 3.2-1.8 0-3.3-1.2-3.3-4.1z"/></svg>