<?xml version="1.0" encoding="UTF-8"?>
<svg width="49px" height="49px" viewBox="0 0 49 49" version="1.1" xmlns="http://www.w3.org/2000/svg" xmlns:xlink="http://www.w3.org/1999/xlink">
    <!-- Generator: Sketch 60 (88103) - https://sketch.com -->
    <title>483408</title>
    <desc>Created with Sketch.</desc>
    <g id="Page-1" stroke="none" stroke-width="1" fill="none" fill-rule="evenodd">
        <g id="Web-Standard-(Hero-870-height)-Copy-11" transform="translate(-914.000000, -1338.000000)">
            <g id="Group-Copy-2" transform="translate(801.000000, 1053.000000)">
                <g id="483408" transform="translate(113.000000, 285.000000)">
                    <path d="M33.4999844,20 L31.9999844,20 L31.9999844,17.9999844 C31.9999844,14.1401563 28.859875,11 25,11 C21.140125,11 18.0000156,14.1401563 18.0000156,17.9999844 L18.0000156,20 L16.5000156,20 C16.2236406,20 16,20.2236406 16,20.5000156 L16,33.0000313 C16,34.1030469 16.8969531,35 18.0000156,35 L32.0000312,35 C33.1030469,35 34,34.1030469 34,32.9999844 L34,20.5000156 C34,20.2236406 33.7763594,20 33.4999844,20 Z M26.4970937,30.4448281 C26.5127031,30.5859219 26.4673281,30.7275312 26.3725937,30.8335156 C26.2778594,30.9394531 26.1421094,31.0000156 26.0000312,31.0000156 L24.0000156,31.0000156 C23.8579375,31.0000156 23.7221875,30.9394531 23.6274531,30.8335156 C23.5327187,30.7275781 23.4872969,30.5859687 23.5029531,30.4448281 L23.818375,27.6084219 C23.3061719,27.2358594 23.0000312,26.6465 23.0000312,26 C23.0000312,24.8969844 23.8969844,23.9999844 25.0000469,23.9999844 C26.1031094,23.9999844 27.0000625,24.8969375 27.0000625,26 C27.0000625,26.6465 26.6939219,27.2358594 26.1817187,27.6084219 L26.4970937,30.4448281 Z M28.9999844,20 L21.0000156,20 L21.0000156,17.9999844 C21.0000156,15.7944219 22.7944375,14 25,14 C27.2055625,14 28.9999844,15.7944219 28.9999844,17.9999844 L28.9999844,20 L28.9999844,20 Z" id="Shape" fill="#FFFFFF" fill-rule="nonzero"></path>
                    <circle id="Oval" stroke="#3965DD" cx="24.5" cy="24.5" r="24"></circle>
                </g>
            </g>
        </g>
    </g>
</svg>