<?xml version="1.0" encoding="utf-8"?>
<svg version="1.0" width="1280.000000pt" height="950.000000pt" viewBox="0 0 1280.000000 950.000000" preserveAspectRatio="xMidYMid meet" xmlns="http://www.w3.org/2000/svg">
  <defs/>
  <g transform="translate(0.000000,950.000000) scale(0.100000,-0.100000)" fill="#000000" stroke="none"/>
  <path d="M 497.188 213.609 C 484.483 214.757 461.286 218.609 450.056 221.314 C 427.187 226.806 409.646 233.527 389.809 244.347 C 362.432 259.183 349.235 269.102 327.595 290.905 C 309.726 309.02 305.382 314.266 293.989 331.561 C 271.693 365.332 258.414 402.054 252.431 446.317 C 248.168 477.547 252.677 521.481 263.496 554.679 C 273.005 583.859 289.972 615.499 308.251 638.286 C 315.874 647.876 337.923 669.844 348.006 677.959 C 387.268 709.844 434.81 729.517 484.892 734.763 C 509.565 737.304 519.319 737.222 547.188 733.943 C 575.467 730.664 608.828 719.762 636.042 705.008 C 651.042 696.893 679.157 678.041 679.157 676.073 C 679.157 675.664 675.55 677.221 671.206 679.434 C 666.78 681.647 658.091 685.336 651.943 687.631 C 628.255 696.483 608.418 700.91 583.664 702.877 C 570.877 703.861 567.024 703.861 554.565 702.877 C 535.221 701.238 528.09 700.008 510.712 695.5 C 493.499 690.992 481.532 686.565 467.023 679.188 C 445.22 668.04 433.908 660.417 417.105 645.663 C 396.121 627.138 384.235 612.22 369.071 585.335 C 353.088 557.138 343.989 526.973 340.956 492.219 C 337.842 456.317 344.153 418.447 359.153 383.775 C 367.35 364.676 380.055 343.611 391.94 329.512 C 404.646 314.348 429.072 292.79 445.548 282.298 C 466.45 268.938 477.515 263.774 499.647 256.97 C 541.122 244.265 577.025 242.954 620.222 252.462 C 635.796 255.905 648.665 260.331 664.321 267.626 C 671.698 271.069 677.845 273.692 678.091 273.446 C 678.583 272.954 669.321 265.413 662.271 260.659 C 645.714 249.429 617.845 234.921 601.615 229.019 C 584.648 222.872 555.139 216.232 538.581 214.757 C 527.926 213.855 502.434 213.117 497.188 213.609 Z" style=""/>
  <path d="M 548.254 258.528 C 514.893 262.626 484.564 272.544 458.581 287.954 C 448.171 294.102 434.482 303.938 435.22 304.676 C 435.384 304.84 437.925 303.856 440.712 302.381 C 453.499 295.987 473.663 289.43 488.253 286.971 C 522.68 281.151 560.385 284.512 590.631 296.151 C 620.796 307.791 644.812 324.84 669.403 352.217 C 671.862 354.922 673.091 355.578 676.288 355.988 C 681.206 356.725 747.436 356.725 749.158 356.07 C 751.207 355.25 750.715 353.857 746.617 348.283 C 735.551 333.037 722.19 318.856 709.075 308.2 C 705.469 305.331 702.354 302.708 702.108 302.381 C 701.862 302.135 696.698 298.528 690.632 294.512 C 662.189 275.495 634.976 265.085 598.418 259.347 C 587.107 257.626 559.893 257.134 548.254 258.528 Z" style=""/>
  <path d="M 532.844 388.693 C 532.598 389.267 532.352 412.956 532.27 441.399 L 532.024 493.039 L 530.139 497.137 C 525.057 508.285 513.253 514.186 491.86 516.317 C 487.024 516.809 472.105 517.219 458.826 517.219 L 434.728 517.219 L 431.695 520.334 C 419.482 533.039 394.727 560.498 394.727 561.4 C 394.727 563.941 485.466 562.957 506.204 560.252 C 540.221 555.744 564.319 545.908 578.09 530.826 C 586.369 521.727 587.762 519.022 591.779 503.203 L 595.549 488.858 L 595.549 439.267 C 595.549 401.808 595.303 389.431 594.566 388.693 C 593.09 387.218 533.336 387.3 532.844 388.693 Z" style=""/>
  <path d="M 630.058 388.939 C 621.533 391.644 614.894 398.529 612.189 407.792 C 610.877 412.3 610.713 418.775 610.468 485.17 C 610.386 525.006 610.55 557.957 610.877 558.285 C 611.451 558.859 636.206 559.351 651.943 559.105 L 658.665 559.023 L 658.665 510.662 C 658.665 468.858 658.829 462.3 659.894 462.3 C 661.37 462.3 678.501 477.219 727.928 521.727 C 765.141 555.17 763.912 554.187 774.404 558.613 C 782.601 562.138 783.994 562.466 788.174 562.056 C 794.24 561.564 800.388 558.859 804.076 555.006 C 806.617 552.383 807.437 550.58 809.486 542.957 C 810.798 538.039 812.273 532.711 812.683 531.154 C 813.257 529.268 813.585 505.17 813.585 459.268 L 813.585 390.168 L 789.404 390.168 L 765.223 390.168 L 765.223 438.94 C 765.223 479.514 765.059 487.711 764.076 487.711 C 763.502 487.711 759.65 484.678 755.633 480.907 C 751.617 477.219 739.158 466.071 727.928 456.153 C 716.78 446.235 696.944 428.694 683.993 417.136 L 660.468 396.234 L 650.96 391.972 C 640.632 387.3 636.943 386.808 630.058 388.939 Z" style=""/>
  <path d="M 906.209 388.201 C 896.208 389.677 882.028 394.021 873.831 398.201 C 853.093 408.529 838.831 425.743 832.027 448.284 C 825.142 471.235 828.585 497.301 841.536 520.17 C 845.634 527.547 856.618 539.105 865.306 545.334 C 874.651 551.974 881.208 554.515 899.241 558.367 L 915.635 561.892 L 970.062 562.138 C 1009.734 562.302 1024.735 562.056 1025.554 561.4 C 1026.538 560.662 1026.702 551.236 1026.702 506.891 L 1026.702 453.284 L 977.685 453.284 L 928.586 453.284 L 926.947 455.087 C 925.225 457.054 904.979 484.924 902.52 488.776 C 901.7 490.006 901.372 491.317 901.618 491.645 C 901.946 491.973 919.487 492.383 940.471 492.629 L 978.75 493.039 L 978.996 502.465 C 979.16 507.629 979.078 513.039 978.75 514.596 L 978.259 517.301 L 944.488 517.055 C 911.7 516.727 910.553 516.645 905.389 514.842 C 889.405 509.186 881.372 500.989 878.339 487.219 C 874.323 469.022 877.52 456.563 889.159 445.333 C 895.143 439.595 898.995 437.464 907.684 435.005 C 913.832 433.284 915.143 433.284 955.963 433.448 C 983.914 433.612 998.505 433.366 999.57 432.874 C 1000.472 432.382 1004.98 426.316 1009.57 419.513 C 1014.161 412.628 1020.472 403.365 1023.587 399.021 C 1026.62 394.677 1029.161 390.332 1029.161 389.431 L 1029.161 387.709 L 968.75 387.791 C 935.471 387.873 907.356 388.037 906.209 388.201 Z" style=""/>
  <path d="M 673.255 594.105 C 672.435 594.433 668.337 598.45 664.239 602.958 C 638.665 630.909 611.123 647.958 574.074 658.86 C 554.155 664.762 533.827 666.975 512.516 665.663 C 485.548 663.942 467.761 659.352 437.925 646.401 C 433.498 644.434 434.646 645.827 441.613 650.581 C 458.581 662.221 477.515 672.467 491.86 677.713 C 517.762 687.139 533.417 690.418 558.336 691.811 C 605.386 694.352 651.616 681.729 690.632 655.663 C 709.895 642.794 728.256 625.499 742.928 606.4 C 747.928 599.925 750.469 595.909 750.469 594.433 C 750.469 593.695 742.354 593.449 712.6 593.531 C 691.698 593.531 673.993 593.859 673.255 594.105 Z" style=""/>
</svg>