<?xml version="1.0" standalone="no"?>
<!DOCTYPE svg PUBLIC "-//W3C//DTD SVG 20010904//EN"
 "http://www.w3.org/TR/2001/REC-SVG-20010904/DTD/svg10.dtd">
<svg version="1.0" xmlns="http://www.w3.org/2000/svg"
 width="1280.000000pt" height="950.000000pt" viewBox="0 0 1280.000000 950.000000"
 preserveAspectRatio="xMidYMid meet">

<g transform="translate(0.000000,950.000000) scale(0.100000,-0.100000)"
fill="#FFFFFF" stroke="none">
<path d="M3010 9494 c-155 -14 -438 -61 -575 -94 -279 -67 -493 -149 -735
-281 -334 -181 -495 -302 -759 -568 -218 -221 -271 -285 -410 -496 -272 -412
-434 -860 -507 -1400 -52 -381 3 -917 135 -1322 116 -356 323 -742 546 -1020
93 -117 362 -385 485 -484 479 -389 1059 -629 1670 -693 301 -31 420 -30 760
10 345 40 752 173 1084 353 183 99 526 329 526 353 0 5 -44 -14 -97 -41 -54
-27 -160 -72 -235 -100 -289 -108 -531 -162 -833 -186 -156 -12 -203 -12 -355
0 -236 20 -323 35 -535 90 -210 55 -356 109 -533 199 -266 136 -404 229 -609
409 -256 226 -401 408 -586 736 -195 344 -306 712 -343 1136 -38 438 39 900
222 1323 100 233 255 490 400 662 155 185 453 448 654 576 255 163 390 226
660 309 506 155 944 171 1471 55 190 -42 347 -96 538 -185 90 -42 165 -74 168
-71 6 6 -107 98 -193 156 -202 137 -542 314 -740 386 -207 75 -567 156 -769
174 -130 11 -441 20 -505 14z"/>
<path d="M3633 8946 c-407 -50 -777 -171 -1094 -359 -127 -75 -294 -195 -285
-204 2 -2 33 10 67 28 156 78 402 158 580 188 420 71 880 30 1249 -112 368
-142 661 -350 961 -684 30 -33 45 -41 84 -46 60 -9 868 -9 889 -1 25 10 19 27
-31 95 -135 186 -298 359 -458 489 -44 35 -82 67 -85 71 -3 3 -66 47 -140 96
-347 232 -679 359 -1125 429 -138 21 -470 27 -612 10z"/>
<path d="M3445 7358 c-3 -7 -6 -296 -7 -643 l-3 -630 -23 -50 c-62 -136 -206
-208 -467 -234 -59 -6 -241 -11 -403 -11 l-294 0 -37 -38 c-149 -155 -451
-490 -451 -501 0 -31 1107 -19 1360 14 415 55 709 175 877 359 101 111 118
144 167 337 l46 175 0 605 c0 457 -3 608 -12 617 -18 18 -747 17 -753 0z"/>
<path d="M4631 7355 c-104 -33 -185 -117 -218 -230 -16 -55 -18 -134 -21 -944
-1 -486 1 -888 5 -892 7 -7 309 -13 501 -10 l82 1 0 590 c0 510 2 590 15 590
18 0 227 -182 830 -725 454 -408 439 -396 567 -450 100 -43 117 -47 168 -42
74 6 149 39 194 86 31 32 41 54 66 147 16 60 34 125 39 144 7 23 11 317 11
877 l0 843 -295 0 -295 0 0 -595 c0 -495 -2 -595 -14 -595 -7 0 -54 37 -103
83 -49 45 -201 181 -338 302 -136 121 -378 335 -536 476 l-287 255 -116 52
c-126 57 -171 63 -255 37z"/>
<path d="M8000 7364 c-122 -18 -295 -71 -395 -122 -253 -126 -427 -336 -510
-611 -84 -280 -42 -598 116 -877 50 -90 184 -231 290 -307 114 -81 194 -112
414 -159 l200 -43 664 -3 c484 -2 667 1 677 9 12 9 14 124 14 665 l0 654 -598
0 -599 0 -20 -22 c-21 -24 -268 -364 -298 -411 -10 -15 -14 -31 -11 -35 4 -4
218 -9 474 -12 l467 -5 3 -115 c2 -63 1 -129 -3 -148 l-6 -33 -412 3 c-400 4
-414 5 -477 27 -195 69 -293 169 -330 337 -49 222 -10 374 132 511 73 70 120
96 226 126 75 21 91 21 589 19 341 -2 519 1 532 7 11 6 66 80 122 163 56 84
133 197 171 250 37 53 68 106 68 117 l0 21 -737 -1 c-406 -1 -749 -3 -763 -5z"/>
<path d="M5158 4852 c-10 -4 -60 -53 -110 -108 -312 -341 -648 -549 -1100
-682 -243 -72 -491 -99 -751 -83 -329 21 -546 77 -910 235 -54 24 -40 7 45
-51 207 -142 438 -267 613 -331 316 -115 507 -155 811 -172 574 -31 1138 123
1614 441 235 157 459 368 638 601 61 79 92 128 92 146 0 9 -99 12 -462 11
-255 0 -471 -4 -480 -7z"/>
<path d="M4289 2520 c-89 -16 -201 -51 -262 -81 -413 -209 -590 -626 -435
-1029 12 -30 45 -91 74 -135 122 -186 329 -328 559 -381 104 -25 358 -25 455
-1 159 39 285 107 403 217 91 85 142 150 184 236 56 111 92 264 68 284 -8 7
-207 9 -571 8 l-559 -3 0 -65 0 -65 465 -5 c256 -3 467 -7 469 -8 8 -5 -13
-62 -45 -119 -92 -166 -262 -296 -442 -340 -98 -23 -304 -21 -402 5 -258 68
-467 270 -521 502 -18 78 -16 251 4 327 61 231 264 427 514 495 115 31 308 31
418 0 140 -40 284 -132 357 -228 l38 -51 83 -5 c122 -8 125 -5 72 74 -105 156
-285 282 -492 344 -75 23 -111 27 -238 30 -82 1 -171 -1 -196 -6z"/>
<path d="M7628 2511 c-176 -39 -313 -115 -449 -251 -136 -136 -205 -275 -230
-468 -45 -332 150 -670 480 -833 242 -119 591 -119 833 1 241 120 416 333 467
568 16 75 14 286 -3 353 -36 138 -107 268 -203 370 -100 107 -271 209 -419
250 -114 31 -355 36 -476 10z m447 -156 c146 -43 269 -127 361 -248 65 -85
101 -170 120 -279 46 -263 -46 -507 -249 -661 -147 -112 -261 -149 -462 -149
-149 -1 -219 13 -333 67 -249 117 -392 342 -392 615 0 342 230 609 585 679 85
17 269 5 370 -24z"/>
<path d="M12113 2506 c-211 -68 -341 -270 -304 -470 33 -180 148 -275 431
-358 294 -87 381 -165 382 -346 0 -90 -18 -143 -75 -207 -74 -86 -207 -127
-341 -105 -147 23 -227 99 -262 247 l-17 71 -61 4 c-96 5 -106 2 -106 -41 1
-171 145 -349 329 -407 67 -22 228 -29 303 -15 276 54 458 315 393 564 -51
196 -172 294 -478 386 -266 80 -332 137 -330 286 0 39 6 83 12 98 21 52 75
109 136 140 54 29 68 31 150 31 97 -1 139 -13 200 -60 45 -34 71 -78 98 -162
l22 -67 74 -3 c46 -2 77 1 81 8 12 20 -9 129 -35 181 -57 112 -176 206 -295
233 -101 23 -220 20 -307 -8z"/>
<path d="M763 2503 c-10 -4 -13 -139 -13 -631 0 -707 0 -705 -71 -786 -48 -54
-106 -76 -203 -76 -140 0 -247 86 -285 228 l-12 42 -84 0 c-96 0 -93 4 -70
-83 33 -127 113 -225 231 -283 66 -33 84 -38 174 -42 59 -3 125 0 162 8 174
34 299 164 327 340 7 40 11 295 11 671 l0 607 -31 6 c-36 7 -118 7 -136 -1z"/>
<path d="M1292 2502 c-9 -6 -12 -175 -10 -808 l3 -799 83 -3 82 -3 0 702 0
702 26 -24 c14 -13 186 -249 382 -524 195 -275 375 -527 399 -560 24 -33 80
-112 126 -175 l83 -115 84 0 85 0 3 803 c2 759 1 802 -15 803 -76 6 -112 7
-135 2 l-28 -5 -2 -656 -3 -657 -453 635 c-249 349 -461 646 -470 659 -16 22
-26 24 -122 28 -58 2 -111 0 -118 -5z"/>
<path d="M5623 2503 c-10 -4 -13 -174 -13 -804 l0 -799 23 -5 c13 -4 50 -5 82
-3 l60 3 5 730 5 730 215 3 c162 2 233 -1 289 -13 131 -27 222 -93 270 -194
23 -49 26 -69 26 -156 0 -87 -3 -107 -26 -155 -71 -148 -208 -210 -469 -210
-67 0 -121 -4 -125 -10 -3 -5 21 -42 54 -82 33 -40 150 -188 261 -328 111
-140 214 -267 228 -282 30 -33 62 -40 161 -36 l74 3 -124 150 c-67 83 -174
212 -237 288 -64 78 -112 143 -109 151 3 8 35 19 74 26 162 29 312 138 373
272 29 63 34 85 38 176 8 175 -31 284 -137 385 -99 95 -221 142 -401 157 -118
10 -575 12 -597 3z"/>
<path d="M9017 2504 c-11 -11 -8 -1050 3 -1128 37 -253 196 -437 422 -491 80
-19 223 -19 312 0 211 45 350 189 403 420 16 72 18 133 18 640 l0 560 -85 0
-85 0 -5 -585 c-5 -512 -8 -591 -23 -635 -42 -125 -127 -217 -234 -250 -77
-25 -259 -18 -325 12 -58 26 -131 93 -165 150 -58 99 -57 89 -63 723 l-5 585
-80 3 c-45 1 -84 0 -88 -4z"/>
<path d="M10525 2498 c-3 -7 -4 -371 -3 -808 l3 -795 82 -3 83 -3 2 323 3 323
245 6 c206 5 257 9 321 27 141 38 246 106 310 198 101 148 97 382 -9 523 -102
133 -235 195 -460 211 -197 15 -572 13 -577 -2z m691 -160 c69 -21 135 -61
179 -110 56 -61 69 -100 70 -203 0 -79 -3 -97 -29 -148 -35 -73 -103 -129
-194 -159 -60 -20 -92 -22 -309 -26 l-243 -4 0 330 c0 255 3 332 13 336 6 3
113 4 237 2 161 -3 240 -8 276 -18z"/>
<path d="M8287 203 c-7 -10 9 -19 83 -48 25 -9 56 -23 70 -30 14 -7 79 -20
145 -29 66 -10 136 -21 156 -27 47 -12 641 -11 964 1 1514 57 1838 71 1854 80
17 9 -261 17 -1309 35 -1333 24 -1956 29 -1963 18z"/>
<path d="M975 179 c-517 -9 -687 -17 -662 -31 9 -5 139 -13 289 -18 150 -5
355 -14 455 -20 309 -18 617 -17 701 1 39 9 81 24 93 35 19 17 19 19 3 31 -20
15 -133 15 -879 2z"/>
</g>
</svg>
