<svg width="46" height="45" viewBox="0 0 46 45" xmlns="http://www.w3.org/2000/svg" xmlns:xlink="http://www.w3.org/1999/xlink"><defs><path id="path-1" d="M0 0h45v46H0z"/></defs><g id="Page-1" fill="none" fill-rule="evenodd"><g id="pattern-diagonal-lines"><g id="pattern-diagonal-lines-copy" transform="rotate(90 23 23)"><g id="Group-Clipped"><mask id="mask-2" fill="#fff"><use xlink:href="#path-1"/></mask><g id="Group" mask="url(#mask-2)" fill="#3965DD" fill-rule="nonzero"><path d="M59.98 80.152l328.2 335.77.314-.28L59.98 79.55v.603zm319.564 335.77l.314-.28L59.98 88.384v.602l319.566 326.936zm-8.636 0l.315-.28L59.978 97.22v.602l310.93 318.1v.001zm-8.635 0l.314-.28L59.978 106.054v.602l302.295 309.266zm-8.636 0l.314-.28L59.978 114.89v.602l293.66 300.43v.001zM103.227 71.375l.277-.283L440.3 415.654l-.277.284L103.227 71.374v.001zm-8.636 0l.277-.283 336.797 344.563-.278.284L94.591 71.374v.001zm-8.636 0l.277-.283L423.03 415.654l-.277.283L85.955 71.374v.001zm-8.636 0l.277-.283 336.797 344.563-.277.283L77.32 71.374v.001zm-8.636 0l.277-.283 336.797 344.563-.277.283L68.683 71.374v.001zm-8.636 0l.278-.283 336.796 344.563-.277.283L60.047 71.374v.001z" transform="rotate(29 310.507 -137.188)" id="Shape"/></g></g></g></g></g></svg>
