<svg width="46" height="45" viewBox="0 0 46 45" xmlns="http://www.w3.org/2000/svg" xmlns:xlink="http://www.w3.org/1999/xlink"><defs><path id="path-1" d="M0 0h45v46H0z"/></defs><g id="Page-1" fill="none" fill-rule="evenodd"><g id="pattern-diagonal-lines-copy" transform="rotate(90 23 23)"><mask id="mask-2" fill="#fff"><use xlink:href="#path-1"/></mask><g id="Group" mask="url(#mask-2)" fill="#FFF" fill-opacity=".4" fill-rule="nonzero"><path d="M60.48 79.653l328.201 335.77.314-.28L60.48 79.05v.602zm319.565 335.77l.314-.28L60.48 87.885v.602l319.566 326.936zm-8.636 0l.315-.28L60.479 96.72v.602l310.93 318.1zm-8.635 0l.314-.28L60.479 105.555v.602l302.295 309.266zm-8.636 0l.314-.28L60.479 114.39v.602l293.659 300.43zM103.728 70.876l.277-.283L440.8 415.155l-.277.284L103.728 70.875zm-8.636 0l.277-.283 336.797 344.563-.278.284L95.092 70.875zm-8.636 0l.277-.283L423.53 415.155l-.277.283L86.456 70.875zm-8.636 0l.277-.283 336.797 344.563-.277.283L77.82 70.875zm-8.636 0l.277-.283 336.797 344.563-.277.283L69.184 70.875zm-8.636 0l.278-.283 336.796 344.563-.277.283L60.548 70.875z" transform="rotate(29 309.792 -138.406)" id="Shape"/></g></g></g></svg>