<?xml version="1.0" encoding="UTF-8"?>
<svg width="286px" height="34px" viewBox="0 0 286 34" version="1.1" xmlns="http://www.w3.org/2000/svg" xmlns:xlink="http://www.w3.org/1999/xlink">
    <!-- Generator: Sketch 60 (88103) - https://sketch.com -->
    <title>Fill 1 Copy 21</title>
    <desc>Created with Sketch.</desc>
    <g id="Page-1" stroke="none" stroke-width="1" fill="none" fill-rule="evenodd">
        <g id="Web-Standard-(Hero-870-height)-Copy-11" transform="translate(-797.000000, -558.000000)" fill="#FFFFFF">
            <path d="M918.965855,584.062586 C910.944333,584.672934 902.911024,585.108984 894.865928,585.077794 C887.279293,585.048439 878.992869,585.040488 872.139524,581.682961 C871.230046,581.237737 870.156167,581.87316 870.16237,582.874302 C870.17726,584.99829 869.990525,587.124112 869.606509,589.215075 C869.334783,590.692632 867.184543,590.666946 866.904131,589.191224 C866.530042,587.218295 866.516393,584.99829 866.60883,582.803972 C866.67397,581.262811 864.726595,580.508132 863.704828,581.676845 L863.648994,581.740449 C862.863592,582.637624 861.436096,582.485954 860.87093,581.462795 L859.825588,579.569982 C859.194661,578.427566 857.53018,578.401269 856.873817,579.529618 C856.317956,580.484281 855.919672,581.529457 855.696335,582.60888 C855.162187,585.1891 851.602443,585.626374 850.58688,583.190485 C850.57199,583.154402 850.557101,583.118319 850.542833,583.082237 C849.722689,580.995555 849.262367,578.472211 847.29452,577.356704 C845.994202,576.620372 844.391138,576.737183 842.898502,576.876621 C837.186658,577.409911 831.474813,577.94259 825.762968,578.47588 C823.290752,578.706443 820.377444,579.272758 818.974143,581.081786 C818.410837,581.808333 817.381626,581.986301 816.648336,581.424878 C816.616076,581.399803 816.584437,581.375341 816.552797,581.349655 C815.646421,580.626166 814.261111,581.083009 813.987523,582.200962 C813.927967,582.444368 813.878957,582.690831 813.840493,582.939129 C813.628323,584.310884 811.891878,584.860686 811.010317,583.778205 C810.990465,583.753742 810.970612,583.728668 810.95076,583.703593 C809.078451,581.307456 805.183702,582.1184 804.230177,584.994009 C804.217149,585.033761 804.204121,585.073513 804.191093,585.113877 C803.743178,586.492971 802.081798,587.143071 800.841037,586.36821 C796.784368,583.83447 795.756397,576.923712 798.646751,572.601736 C802.110956,567.422337 808.593934,565.235969 814.610386,563.414098 C818.155241,562.340178 821.760273,561.26687 825.468908,561.205102 C828.554681,561.154341 831.606954,561.808111 834.688385,561.980574 C846.666074,562.651468 858.855313,556.099091 870.290169,559.678008 C877.470454,561.925533 883.164308,567.923214 890.574755,569.26011 C893.970098,569.872904 897.459739,569.445416 900.88424,569.016704 C907.046481,568.244901 913.208722,567.473709 919.370343,566.701295 C948.633698,563.036758 977.839978,562.417848 1007.09403,566.152715 C1011.45778,566.709857 1016.26263,567.259048 1019.92784,564.85863 C1022.0359,563.47709 1023.66874,561.169631 1026.16081,560.731134 C1030.37877,559.988075 1033.99559,565.067787 1038.2055,564.27886 C1042.20633,563.529073 1044.19403,557.853078 1048.26373,558.002913 C1050.35379,558.079972 1052.01145,559.755066 1054.01217,560.356852 C1057.4131,561.380623 1060.88909,559.173461 1064.42402,558.79551 C1072.88229,557.889773 1078.74613,567.059064 1082.48703,574.243806 C1082.99326,575.216816 1083.15952,576.348835 1082.82824,577.392176 C1081.35297,582.048681 1073.59573,577.883879 1069.74565,580.728298 C1067.54144,582.357524 1066.65863,586.261185 1063.91655,585.99454 C1060.10928,585.623316 1061.61432,578.231863 1057.94787,577.156721 C1056.35845,576.690703 1055.20579,577.659432 1054.48428,579.146163 C1053.77209,580.612711 1051.71118,580.723405 1050.91399,579.299667 C1050.78433,579.067881 1050.43754,579.171849 1050.44561,579.436659 C1050.48655,580.808414 1050.00328,582.193012 1049.16204,583.302402 C1048.19549,584.576917 1046.19538,584.202024 1045.63766,582.709178 C1045.00239,581.007786 1043.54883,579.527172 1041.86822,578.699715 C1039.31101,577.44049 1036.34746,577.340192 1033.4906,577.264357 C1025.44303,577.052142 1016.02317,577.512044 1010.97947,583.356832 C1010.43354,583.989197 1009.4217,583.90847 1008.99053,583.194766 C1008.44087,582.285971 1007.07107,582.463938 1006.75778,583.4767 C1006.19944,585.280836 1005.2515,586.97122 1004.01322,588.416975 C1001.809,590.990467 997.573046,590.081672 996.608974,586.850128 L995.821711,584.211198 C995.26647,582.348351 993.499006,581.094018 991.530538,581.166183 L981.351332,581.53863 C979.679407,581.599787 977.699152,581.84197 976.920574,583.301179 C976.053902,584.925513 975.527819,588.153999 974.104666,586.970608 C973.206355,585.151183 970.803621,584.653975 969.248326,585.974358 C968.376692,586.71436 967.470315,587.414609 966.5323,588.072048 C964.570036,589.448084 961.809962,588.571091 960.979273,586.342524 C960.880632,586.077714 960.623795,585.909532 960.337799,585.901581 C955.946745,585.784771 953.051429,591.778783 948.512103,591.994056 C945.94807,592.115759 943.755645,590.344036 941.62836,588.927637 C935.472943,584.830108 926.410422,583.495659 918.965855,584.062586" id="Fill-1-Copy-21"></path>
        </g>
    </g>
</svg>